<svg width="320" height="320" xmlns="http://www.w3.org/2000/svg" version="1.1" clip-rule="evenodd">
 <g>
  <title>Layer 1</title>
  <g id="svg_1" stroke="null">
   <path fill="#000000" d="m155.26396,28.7899c2.79865,3.99061 5.78165,8.12731 8.93781,12.4101c7.45749,12.85095 11.18344,26.83713 11.17227,41.95795c-3.14499,-0.31734 -6.12799,0.07682 -8.93781,1.18191c-1.11723,0 -2.23445,0 -3.35168,0c-0.4413,-17.06802 -5.84309,-32.03873 -16.19979,-44.91273c-0.58096,-1.5106 -1.51384,-2.79097 -2.79307,-3.84122c-1.43564,-1.2289 -2.92155,-2.3123 -4.46891,-3.25026c-7.26197,-6.5978 -15.64117,-11.02998 -25.1376,-13.29653c-2.38528,-0.63552 -4.80407,-0.93099 -7.26197,-0.88644c-0.93288,-0.78792 -1.86018,-0.78792 -2.79307,0c-1.30157,0 -2.60872,0 -3.91029,0c0,-4.72766 0,-9.45531 0,-14.18297c21.62951,0.21877 39.87382,8.49217 54.7441,24.82019l0.00001,0z" opacity="0.967" id="svg_2" stroke="null"/>
  </g>
  <g id="svg_3" stroke="null">
   <path fill="#131313" d="m107.22322,18.15267c2.4579,-0.04456 4.87669,0.25092 7.26197,0.88644c9.49643,2.26656 17.87563,6.69873 25.1376,13.29653c-0.37427,0 -0.74296,0 -1.11723,0c-5.72579,-3.42383 -11.6806,-6.18165 -17.87563,-8.2734c-5.00518,-1.74711 -10.22262,-2.53503 -15.64117,-2.36383c0,-1.18191 0,-2.36383 0,-3.54574c0.74296,0 1.4915,0 2.23445,0l0.00001,0z" opacity="0.749" id="svg_4" stroke="null"/>
  </g>
  <g id="svg_5" stroke="null">
   <path fill="#4f4f4f" d="m107.22322,18.15267c-0.74296,0 -1.4915,0 -2.23445,0c0,1.18191 0,2.36383 0,3.54574c5.41855,-0.1712 10.636,0.61672 15.64117,2.36383c-5.34593,-1.08955 -10.74772,-1.6805 -16.19979,-1.77287c0,-1.37888 0,-2.75782 0,-4.1367c0.93288,-0.78792 1.86018,-0.78792 2.79307,0z" opacity="0.031" id="svg_6" stroke="null"/>
  </g>
  <g id="svg_7" stroke="null">
   <path fill="#000000" d="m138.50556,48.88244c1.4915,2.16999 2.98299,4.33703 4.46891,6.50053c4.16726,7.05012 6.58605,14.73256 7.26197,23.04732c0,1.57608 0,3.15157 0,4.72766c-3.14499,-0.31734 -6.12799,0.07682 -8.93781,1.18191c-1.10047,0.14124 -2.12273,-0.05555 -3.07237,-0.59096c-0.47482,-10.06163 -3.73712,-18.92599 -9.77573,-26.59306c-5.45207,-6.72805 -12.33977,-10.86474 -20.66869,-12.4101c-1.11723,-0.78775 -2.23445,-0.78775 -3.35168,0c-1.31833,-0.10283 -2.6199,-0.29962 -3.91029,-0.59096c0,-4.53069 0,-9.06132 0,-13.59201c15.28925,0.1959 27.94742,6.30244 37.9857,18.31967l-0.00001,0z" opacity="0.961" id="svg_8" stroke="null"/>
  </g>
  <g id="svg_9" stroke="null">
   <path fill="#3d3d3d" d="m138.50556,32.33564c0.37427,0 0.74296,0 1.11723,0c1.54736,0.93797 3.03327,2.02137 4.46891,3.25026c1.27922,1.05025 2.21211,2.33062 2.79307,3.84122c-2.80424,-2.38173 -5.59731,-4.74556 -8.3792,-7.09148l-0.00001,0z" opacity="0.463" id="svg_10" stroke="null"/>
  </g>
  <g id="svg_11" stroke="null">
   <path fill="#363636" d="m155.26396,28.7899c1.6535,1.45488 3.23996,3.03078 4.74821,4.72766c2.12273,2.33393 3.88795,4.89472 5.30683,7.68244c-0.50275,-0.59468 -0.87144,-0.59468 -1.11723,0c-3.15617,-4.28278 -6.13916,-8.41948 -8.93781,-12.4101z" opacity="0.58" id="svg_12" stroke="null"/>
  </g>
  <g id="svg_13" stroke="null">
   <path fill="#0f0f0f" d="m165.319,41.19999c5.69227,7.70726 9.60256,16.37483 11.73088,26.00211c0.22345,2.90278 0.78206,5.66078 1.67584,8.2734c0.11731,3.94405 0.30724,7.88396 0.55861,11.81914c-3.91029,0 -7.82059,0 -11.73088,0c0,-1.18191 0,-2.36383 0,-3.54574c2.71486,0.18852 5.32358,-0.00827 7.82059,-0.59096c0.01117,-15.12082 -3.71478,-29.107 -11.17227,-41.95795c0.24579,-0.59468 0.61447,-0.59468 1.11723,0z" opacity="0.749" id="svg_14" stroke="null"/>
  </g>
  <g id="svg_15" stroke="null">
   <path fill="#4f4f4f" d="m107.78183,44.74574c-0.93288,0 -1.86018,0 -2.79307,0c0,1.18191 0,2.36383 0,3.54574c-0.53627,-1.04304 -0.72061,-2.22495 -0.55861,-3.54574c1.11723,-0.78775 2.23445,-0.78775 3.35168,0z" opacity="0.305" id="svg_16" stroke="null"/>
  </g>
  <g id="svg_17" stroke="null">
   <path fill="#151515" d="m107.78183,44.74574c8.32892,1.54535 15.21663,5.68205 20.66869,12.4101c-3.56954,-2.47729 -7.2899,-4.64433 -11.17227,-6.50053c-3.44664,-1.89224 -7.16701,-2.68058 -11.17227,-2.36383c-0.37427,0 -0.74296,0 -1.11723,0c0,-1.18191 0,-2.36383 0,-3.54574c0.93288,0 1.86018,0 2.79307,0l0.00001,0z" opacity="0.749" id="svg_18" stroke="null"/>
  </g>
  <g id="svg_19" stroke="null">
   <path fill="#4e4e4e" d="m106.10599,48.29148c4.00526,-0.31675 7.72562,0.47158 11.17227,2.36383c-3.75947,-0.99754 -7.47983,-1.78587 -11.17227,-2.36383z" opacity="0.141" id="svg_20" stroke="null"/>
  </g>
  <g id="svg_21" stroke="null">
   <path fill="#3e3e3e" d="m138.50556,48.88244c2.4579,2.0063 4.50242,4.37013 6.14475,7.09148c-0.53627,-0.2677 -0.99992,-0.66128 -1.39653,-1.18191c-0.22345,0.13474 -0.31841,0.33212 -0.27931,0.59096c-1.48591,-2.16349 -2.97741,-4.33053 -4.46891,-6.50053z" opacity="0.71" id="svg_22" stroke="null"/>
  </g>
  <g id="svg_23" stroke="null">
   <path fill="#0b0b0b" d="m144.65031,55.97392c3.09472,3.78626 5.32917,8.12034 6.70336,13.00105c1.0055,3.88554 1.84342,7.82545 2.51376,11.81914c0.27931,2.15817 0.37427,4.32462 0.27931,6.50053c-3.91029,0 -7.82059,0 -11.73088,0c0,-1.18191 0,-2.36383 0,-3.54574c2.79307,0 5.58613,0 8.3792,0c0.17317,-1.89874 -0.01117,-3.67162 -0.55861,-5.31861c-0.67592,-8.31476 -3.09472,-15.99721 -7.26197,-23.04732c-0.0391,-0.25884 0.05586,-0.45622 0.27931,-0.59096c0.39662,0.52063 0.86026,0.91421 1.39653,1.18191l-0.00001,0z" opacity="0.749" id="svg_24" stroke="null"/>
  </g>
  <g id="svg_25" stroke="null">
   <path fill="#000000" d="m122.30577,69.56593c7.07763,11.82623 6.51902,23.2512 -1.67584,34.2755c-4.69794,4.28148 -10.09973,6.8421 -16.19979,7.68244c-6.34585,0.1436 -12.68052,-0.05319 -18.99285,-0.59096c-1.68701,-0.60396 -2.80424,-1.78587 -3.35168,-3.54574c-1.24571,-4.05692 -0.50275,-7.60266 2.23445,-10.63723c0.61447,-0.62523 1.35743,-1.11809 2.23445,-1.47739c6.14475,-0.19679 12.28949,-0.39417 18.43424,-0.59096c6.03861,-2.31241 8.08872,-6.74459 6.14475,-13.29653c0.09496,-0.58623 -0.08938,-0.97981 -0.55861,-1.18191c-1.06137,-1.80774 -2.54728,-3.08834 -4.46891,-3.84122c-8.93781,-0.29548 -17.87563,-0.39417 -26.81344,-0.29548c0.22903,5.36707 -0.05028,10.68568 -0.83792,15.95584c-2.46907,3.27213 -5.73137,4.65083 -9.77573,4.1367c-0.37427,0 -0.55861,0.19679 -0.55861,0.59096c-1.27922,0.15128 -2.49142,-0.0455 -3.63099,-0.59096c-0.27931,-12.21154 -0.37427,-24.42484 -0.27931,-36.63933c14.52395,-0.09869 29.04789,0 43.57184,0.29548c6.08888,1.33852 10.92648,4.58878 14.52395,9.75079z" opacity="0.982" id="svg_26" stroke="null"/>
  </g>
  <g id="svg_27" stroke="null">
   <path fill="#7449a5" d="m213.91835,73.11167c2.1339,4.65142 2.22887,9.37908 0.27931,14.18297c-40.22016,60.67178 -80.44031,121.34297 -120.66047,182.01475c-12.78666,13.94658 -28.14852,18.57555 -46.0856,13.88749c-6.21178,-2.19777 -11.79791,-5.44803 -16.7584,-9.75079c-11.85377,-11.1159 -16.97626,-25.10208 -15.36187,-41.95795c0.78206,-4.89194 2.08921,-9.6196 3.91029,-14.18297c11.94874,-19.4744 24.51754,-38.48312 37.7064,-57.02735c5.58613,-4.33349 11.17227,-4.33349 16.7584,0c1.26805,1.0389 2.19535,2.31951 2.79307,3.84122c2.44673,5.46635 2.16742,10.78496 -0.83792,15.95584c-10.61365,15.95584 -21.2273,31.91168 -31.84096,47.86752c-3.98291,8.52042 -3.05003,16.39965 2.79307,23.63828c0.63123,0.96976 1.46915,1.56072 2.51376,1.77287c9.36236,5.65191 17.83094,4.47 25.4169,-3.54574c39.06941,-59.65297 78.36227,-119.14284 117.8674,-178.46901c5.26214,-5.18447 11.12758,-6.0709 17.59632,-2.65931c1.79873,1.01349 3.1003,2.49088 3.91029,4.43218l0.00001,0z" opacity="0.996" id="svg_28" stroke="null"/>
  </g>
  <g id="svg_29" stroke="null">
   <path fill="#3a3a3a" d="m177.04988,67.2021c1.07254,2.5748 1.63115,5.3322 1.67584,8.2734c-0.89378,-2.61262 -1.45239,-5.37062 -1.67584,-8.2734z" opacity="0.733" id="svg_30" stroke="null"/>
  </g>
  <g id="svg_31" stroke="null">
   <path fill="#7449a5" d="m266.98662,77.24837c2.29031,4.95636 2.19535,9.8808 -0.27931,14.77392c-35.4496,53.63703 -71.11147,107.11864 -106.97444,160.44482c-5.12807,3.36964 -10.24497,3.46774 -15.36187,0.29548c-0.22345,0.13474 -0.31841,0.33212 -0.27931,0.59096c-6.40729,-5.27075 -7.80383,-11.77127 -4.1896,-19.50158c34.29327,-51.44694 68.36868,-103.05699 102.22623,-154.83073c4.87669,-8.68057 11.67502,-10.94571 20.38938,-6.79601c1.98308,1.20969 3.46899,2.88387 4.46891,5.02313l0.00001,0.00001z" opacity="0.993" id="svg_32" stroke="null"/>
  </g>
  <g id="svg_33" stroke="null">
   <path fill="#09050d" d="m213.91835,73.11167c2.28473,1.03654 3.77064,2.80941 4.46891,5.31861c0.31282,2.07485 0.68151,4.1432 1.11723,6.20505c-0.29607,1.66473 -0.48041,3.33891 -0.55861,5.02313c-0.30165,1.23687 -0.77089,2.41879 -1.39653,3.54574c-38.3097,57.61358 -76.47974,115.32998 -114.51572,173.1504c-1.50826,2.08312 -3.08913,4.05278 -4.74821,5.90957c-2.05011,1.77287 -3.91029,3.74253 -5.58613,5.90957c-3.76505,3.96473 -8.23396,6.72273 -13.40672,8.2734c-8.07196,2.32601 -16.26682,2.91696 -24.57898,1.77287c-9.80925,-1.73919 -17.81976,-6.66363 -24.02037,-14.77392c4.96049,4.30276 10.54662,7.55302 16.7584,9.75079c17.93707,4.68806 33.29894,0.0591 46.0856,-13.88749c40.22016,-60.67178 80.44031,-121.34297 120.66047,-182.01475c1.94956,-4.80389 1.8546,-9.53155 -0.27931,-14.18297l-0.00003,0z" opacity="0.749" id="svg_34" stroke="null"/>
  </g>
  <g id="svg_35" stroke="null">
   <path fill="#030303" d="m110.5749,80.20316c-9.09981,-0.57382 -18.22197,-0.77061 -27.37205,-0.59096c0.09496,4.92858 0,9.85303 -0.27931,14.77392c-0.4413,0.73574 -0.72061,1.52349 -0.83792,2.36383c0,0.39417 0,0.78775 0,1.18191c-0.61447,0.65005 -1.36302,1.04422 -2.23445,1.18191c-3.69243,0.54545 -7.41838,0.74224 -11.17227,0.59096c0,-1.18191 0,-2.36383 0,-3.54574c4.04436,0.51413 7.30666,-0.86457 9.77573,-4.1367c0.78764,-5.27015 1.06695,-10.58877 0.83792,-15.95584c8.93781,-0.09869 17.87563,0 26.81344,0.29548c1.92163,0.75288 3.40754,2.03348 4.46891,3.84122l0,0.00001z" opacity="0.749" id="svg_36" stroke="null"/>
  </g>
  <g id="svg_37" stroke="null">
   <path fill="#09050d" d="m266.98662,77.24837c2.27356,1.25165 3.76505,3.22131 4.46891,5.90957c0.74296,3.74253 0.74296,7.48565 0,11.22818c-1.10047,2.72136 -2.497,5.28197 -4.1896,7.68244c-33.70114,50.8223 -67.40787,101.6446 -101.109,152.4669c-5.57496,5.93084 -11.81467,6.81728 -18.71355,2.65931c-1.23454,-1.20378 -2.35176,-2.48379 -3.35168,-3.84122c-0.0391,-0.25884 0.05586,-0.45622 0.27931,-0.59096c5.1169,3.17226 10.2338,3.07416 15.36187,-0.29548c35.86297,-53.32619 71.52485,-106.80779 106.97444,-160.44482c2.47466,-4.89312 2.56962,-9.81757 0.27931,-14.77392l-0.00001,0z" opacity="0.749" id="svg_38" stroke="null"/>
  </g>
  <g id="svg_39" stroke="null">
   <path fill="#434343" d="m110.5749,80.20316c0.46924,0.20211 0.65358,0.59568 0.55861,1.18191c-0.70944,-0.34866 -1.45239,-0.64414 -2.23445,-0.88644c-8.3792,-0.29548 -16.7584,-0.39417 -25.1376,-0.29548c0.09496,4.92858 0,9.85303 -0.27931,14.77392c-0.21227,0.85216 -0.67592,1.44312 -1.39653,1.77287c0.11731,-0.84034 0.39662,-1.62809 0.83792,-2.36383c0.27931,-4.9209 0.37427,-9.84534 0.27931,-14.77392c9.15009,-0.17965 18.27224,0.01714 27.37205,0.59096l0,0.00001z" opacity="0.536" id="svg_40" stroke="null"/>
  </g>
  <g id="svg_41" stroke="null">
   <path fill="#251834" d="m218.38726,78.43028c1.95515,3.65684 2.14508,7.39996 0.55861,11.22818c0.07821,-1.68423 0.26255,-3.35841 0.55861,-5.02313c-0.43572,-2.06185 -0.8044,-4.1302 -1.11723,-6.20505l0.00001,0z" opacity="0.186" id="svg_42" stroke="null"/>
  </g>
  <g id="svg_43" stroke="null">
   <path fill="#4b4b4b" d="m151.35367,68.97497c2.52493,5.97044 3.73712,12.27418 3.63099,18.91062c-4.14491,0.67783 -8.33451,0.77593 -12.5688,0.29548c-0.40779,-1.27292 -0.78206,-2.55353 -1.11723,-3.84122c2.80982,-1.10509 5.79282,-1.49926 8.93781,-1.18191c0,-1.57608 0,-3.15157 0,-4.72766c0.54744,1.647 0.73178,3.41987 0.55861,5.31861c-2.79307,0 -5.58613,0 -8.3792,0c0,1.18191 0,2.36383 0,3.54574c3.91029,0 7.82059,0 11.73088,0c0.09496,-2.1759 0,-4.34235 -0.27931,-6.50053c-0.67034,-3.99369 -1.50826,-7.9336 -2.51376,-11.81914l0.00001,0.00001z" opacity="0.58" id="svg_44" stroke="null"/>
  </g>
  <g id="svg_45" stroke="null">
   <path fill="#303030" d="m130.12636,81.38507c1.8546,4.67329 2.04452,9.40094 0.55861,14.18297c0.06145,-4.74243 -0.12289,-9.47009 -0.55861,-14.18297z" opacity="0.735" id="svg_46" stroke="null"/>
  </g>
  <g id="svg_47" stroke="null">
   <path fill="#4b4b4b" d="m178.72572,75.4755c0.93847,4.19343 1.30716,8.52692 1.11723,13.00105c-4.28456,0 -8.56354,0 -12.84811,0c0.02793,-1.42007 -0.15641,-2.79877 -0.55861,-4.1367c2.80982,-1.10509 5.79282,-1.49926 8.93781,-1.18191c-2.497,0.58268 -5.10573,0.77947 -7.82059,0.59096c0,1.18191 0,2.36383 0,3.54574c3.91029,0 7.82059,0 11.73088,0c-0.25138,-3.93518 -0.4413,-7.87509 -0.55861,-11.81914z" opacity="0.012" id="svg_48" stroke="null"/>
  </g>
  <g id="svg_49" stroke="null">
   <path fill="#2d1c40" d="m271.45552,83.15794c2.23445,3.74253 2.23445,7.48565 0,11.22818c0.74296,-3.74253 0.74296,-7.48565 0,-11.22818z" opacity="0.4" id="svg_50" stroke="null"/>
  </g>
  <g id="svg_51" stroke="null">
   <path fill="#313131" d="m68.6789,96.15899c0,1.18191 0,2.36383 0,3.54574c3.75388,0.15128 7.47983,-0.0455 11.17227,-0.59096c-0.85468,0.96326 -1.9719,1.45553 -3.35168,1.47739c-2.60872,0.39417 -5.21186,0.39417 -7.82059,0c-0.51392,-1.20614 -0.70385,-2.48675 -0.55861,-3.84122c0,-0.39417 0.18434,-0.59096 0.55861,-0.59096l0,0.00001z" opacity="0.732" id="svg_52" stroke="null"/>
  </g>
  <g id="svg_53" stroke="null">
   <path fill="#9c8cac" d="m84.32007,96.74995c-2.73721,3.03456 -3.48016,6.58031 -2.23445,10.63723c-0.84909,-1.15946 -1.21778,-2.53816 -1.11723,-4.1367c-0.02793,-1.88633 0.34634,-3.65921 1.11723,-5.31861c0.61447,-0.65005 1.36302,-1.04422 2.23445,-1.18191l0,-0.00001z" opacity="0.352" id="svg_54" stroke="null"/>
  </g>
  <g id="svg_55" stroke="null">
   <path fill="#7449a4" d="m120.62993,103.84143c6.69219,7.45256 8.46299,16.12012 5.30683,26.00211c-3.83767,9.57409 -10.636,15.18819 -20.38938,16.84227c-12.28949,0.29548 -24.57898,0.39417 -36.86848,0.29548c-0.18434,0 -0.37427,0 -0.55861,0c-1.30157,0 -2.60872,0 -3.91029,0c-0.18434,-12.21922 0,-24.43253 0.55861,-36.63933c3.35168,-0.70856 6.70336,-0.61046 10.05504,0.29548c1.58088,0.98453 2.88244,2.26455 3.91029,3.84122c0.51392,5.49176 0.69827,11.00776 0.55861,16.5468c1.43005,0.17847 2.73162,-0.01891 3.91029,-0.59096c0.18434,0 0.37427,0 0.55861,0c7.66976,0.25234 15.30042,-0.04314 22.90314,-0.88644c4.72587,-2.8821 6.21737,-7.11749 4.46891,-12.70558c0.09496,-0.58623 -0.08938,-0.97981 -0.55861,-1.18191c-1.40771,-2.41997 -3.45223,-3.79867 -6.14475,-4.1367c6.10006,-0.84034 11.50185,-3.40096 16.19979,-7.68244z" opacity="0.983" id="svg_56" stroke="null"/>
  </g>
  <g id="svg_57" stroke="null">
   <path fill="#070509" d="m122.30577,69.56593c3.97733,2.88328 6.58046,6.82319 7.82059,11.81914c0.43572,4.71288 0.62006,9.44054 0.55861,14.18297c-0.67034,4.56987 -2.53052,8.50919 -5.58613,11.81914c2.54728,2.63567 4.22312,5.78724 5.02752,9.45531c0.43572,4.71288 0.62006,9.44054 0.55861,14.18297c-0.50275,4.21293 -2.17859,7.75867 -5.02752,10.63723c-1.11723,0.78775 -2.05011,1.77287 -2.79307,2.95478c-0.6033,1.23333 -1.53619,2.02107 -2.79307,2.36383c-1.66467,0.48813 -3.15617,1.27588 -4.46891,2.36383c-1.12281,0.84152 -2.42997,1.2351 -3.91029,1.18191c-14.3396,0 -28.67362,0 -43.01322,0c0,-1.18191 0,-2.36383 0,-3.54574c12.28949,0.09869 24.57898,0 36.86848,-0.29548c9.75339,-1.65409 16.55171,-7.26818 20.38938,-16.84227c3.15617,-9.88198 1.38536,-18.54955 -5.30683,-26.00211c8.19486,-11.0243 8.75347,-22.44927 1.67584,-34.2755l0.00001,-0.00001z" opacity="0.749" id="svg_58" stroke="null"/>
  </g>
  <g id="svg_59" stroke="null">
   <path fill="#0c0b0d" d="m85.4373,110.93292c6.31233,0.53777 12.647,0.73456 18.99285,0.59096c2.69252,0.33803 4.73704,1.71673 6.14475,4.1367c-6.32909,0 -12.66376,0 -18.99285,0c-2.96065,-0.28248 -5.01076,-1.85856 -6.14475,-4.72766z" opacity="0.75" id="svg_60" stroke="null"/>
  </g>
  <g id="svg_61" stroke="null">
   <path fill="#493e53" d="m91.58204,115.66057c6.32909,0 12.66376,0 18.99285,0c0.46924,0.20211 0.65358,0.59568 0.55861,1.18191c-6.59164,-0.37053 -13.10507,-0.76411 -19.55147,-1.18191l0.00001,0z" opacity="0.024" id="svg_62" stroke="null"/>
  </g>
  <g id="svg_63" stroke="null">
   <path fill="#07040b" d="m78.73394,114.47866c1.30157,0.98513 2.4188,2.16704 3.35168,3.54574c0.99433,4.04865 1.3686,8.18535 1.11723,12.4101c-1.17867,0.57205 -2.48024,0.76943 -3.91029,0.59096c0.13965,-5.53904 -0.04469,-11.05503 -0.55861,-16.5468l-0.00001,0z" opacity="0.749" id="svg_64" stroke="null"/>
  </g>
  <g id="svg_65" stroke="null">
   <path fill="#311e46" d="m82.08562,118.0244c0.82116,0.50054 1.28481,1.28829 1.39653,2.36383c0.27931,3.34304 0.37427,6.692 0.27931,10.04627c-0.18434,0 -0.37427,0 -0.55861,0c0.25138,-4.22475 -0.12289,-8.36145 -1.11723,-12.4101z" opacity="0.171" id="svg_66" stroke="null"/>
  </g>
  <g id="svg_67" stroke="null">
   <path fill="#20152c" d="m130.12636,116.84249c1.8546,4.67329 2.04452,9.40094 0.55861,14.18297c0.06145,-4.74243 -0.12289,-9.47009 -0.55861,-14.18297z" opacity="0.734" id="svg_68" stroke="null"/>
  </g>
  <g id="svg_69" stroke="null">
   <path fill="#7449a5" d="m277.60027,143.43555c2.96624,5.34284 2.87127,10.66145 -0.27931,15.95584c-26.61792,38.98366 -52.68841,78.38099 -78.20586,118.1914c-5.32358,5.43267 -11.18902,6.61458 -17.59632,3.54574c-6.96032,-5.61823 -8.35685,-12.51233 -4.1896,-20.68349c26.07048,-39.39733 52.13538,-78.79407 78.20586,-118.1914c5.7593,-6.02953 12.18336,-6.91597 19.27216,-2.65931c1.27922,1.05013 2.21211,2.33073 2.79307,3.84122z" opacity="0.993" id="svg_70" stroke="null"/>
  </g>
  <g id="svg_71" stroke="null">
   <path fill="#321f48" d="m125.65745,141.66268c-0.37427,1.57608 -1.30157,2.56062 -2.79307,2.95478c0.74296,-1.18191 1.67584,-2.16704 2.79307,-2.95478z" opacity="0.012" id="svg_72" stroke="null"/>
  </g>
  <g id="svg_73" stroke="null">
   <path fill="#09050d" d="m277.60027,143.43555c1.86018,0.78775 3.16734,2.16704 3.91029,4.1367c2.23445,5.12182 2.23445,10.24306 0,15.36488c-26.07048,39.40206 -52.14096,78.79939 -78.20586,118.1914c-1.30157,0.98513 -2.4188,2.16704 -3.35168,3.54574c-4.90462,3.03929 -9.93214,3.13798 -15.08256,0.29548c-1.23454,-1.20378 -2.35176,-2.48379 -3.35168,-3.84122c6.40729,3.06884 12.27273,1.88693 17.59632,-3.54574c25.51745,-39.81041 51.58794,-79.20774 78.20586,-118.1914c3.15058,-5.29438 3.24554,-10.613 0.27931,-15.95584z" opacity="0.749" id="svg_74" stroke="null"/>
  </g>
  <g id="svg_75" stroke="null">
   <path fill="#2b1a41" d="m120.07132,146.98129c-1.16192,1.40234 -2.65341,2.19009 -4.46891,2.36383c1.31274,-1.08795 2.80424,-1.8757 4.46891,-2.36383z" opacity="0.204" id="svg_76" stroke="null"/>
  </g>
  <g id="svg_77" stroke="null">
   <path fill="#21152f" d="m68.12029,146.98129c0.18434,0 0.37427,0 0.55861,0c0,1.18191 0,2.36383 0,3.54574c14.3396,0 28.67362,0 43.01322,0c-14.42898,0.58978 -28.95293,0.78656 -43.57184,0.59096c0,-1.3787 0,-2.758 0,-4.1367l0.00001,0z" opacity="0.635" id="svg_78" stroke="null"/>
  </g>
  <g id="svg_79" stroke="null">
   <path fill="#2b1a3e" d="m281.51056,147.57225c3.01093,4.1627 3.47457,8.69357 1.39653,13.59201c-0.21227,0.85216 -0.67592,1.44312 -1.39653,1.77287c2.23445,-5.12182 2.23445,-10.24306 0,-15.36488z" opacity="0.602" id="svg_80" stroke="null"/>
  </g>
  <g id="svg_81" stroke="null">
   <path fill="#09050d" d="m76.49949,164.11905c2.26797,1.02413 3.75947,2.797 4.46891,5.31861c0.2402,1.94129 0.79882,3.71416 1.67584,5.31861c0.20669,2.98315 -0.4413,5.74115 -1.95515,8.2734c-11.40688,17.08043 -22.67411,34.21818 -33.7961,51.41326c-1.2904,2.2025 -1.84901,4.66501 -1.67584,7.38696c-0.09496,2.05476 0.27372,3.92632 1.11723,5.61409c0.91054,1.93125 1.84342,3.90091 2.79307,5.90957c-1.04461,-0.21215 -1.88253,-0.80311 -2.51376,-1.77287c-5.84309,-7.23863 -6.77598,-15.11786 -2.79307,-23.63828c10.61365,-15.95584 21.2273,-31.91168 31.84096,-47.86752c3.00534,-5.17087 3.28465,-10.48949 0.83792,-15.95584l-0.00001,0.00001z" opacity="0.749" id="svg_82" stroke="null"/>
  </g>
  <g id="svg_83" stroke="null">
   <path fill="#2e1d43" d="m80.96839,169.43766c1.10047,1.52703 1.65908,3.2999 1.67584,5.31861c-0.87702,-1.60445 -1.43564,-3.37732 -1.67584,-5.31861z" opacity="0.031" id="svg_84" stroke="null"/>
  </g>
  <g id="svg_87" stroke="null">
   <path fill="#7449a5" d="m288.77253,209.62273c2.44673,5.82565 2.16742,11.53844 -0.83792,17.13775c-17.35053,25.64162 -34.47761,51.44635 -51.39242,77.41536c-5.09455,6.32442 -11.05496,7.50634 -17.87563,3.54574c-0.22345,0.13474 -0.31841,0.33212 -0.27931,0.59096c-6.51343,-5.42617 -7.90996,-12.12348 -4.1896,-20.09254c17.31701,-26.1989 34.63402,-52.39838 51.95104,-78.59728c7.59714,-8.60788 15.13842,-8.60788 22.62384,0l0,0.00001z" opacity="0.992" id="svg_88" stroke="null"/>
  </g>
  <g id="svg_89" stroke="null">
   <path fill="#0a050d" d="m288.77253,209.62273c1.71494,1.22269 3.0221,2.79877 3.91029,4.72766c1.97749,4.64315 2.16742,9.3708 0.55861,14.18297c-17.4008,26.55879 -34.80719,53.15185 -52.23034,79.77919c-7.60831,8.65752 -15.14959,8.65752 -22.62384,0c-0.0391,-0.25884 0.05586,-0.45622 0.27931,-0.59096c6.82067,3.96059 12.78107,2.77868 17.87563,-3.54574c16.91481,-25.96901 34.04189,-51.77374 51.39242,-77.41536c3.00534,-5.59932 3.28465,-11.3121 0.83792,-17.13775l0,-0.00001z" opacity="0.749" id="svg_90" stroke="null"/>
  </g>
  <g id="svg_91" stroke="null">
   <path fill="#2f1d44" d="m292.68283,214.35039c1.84901,2.12213 2.59197,4.68333 2.23445,7.68244c-0.09496,1.3787 -0.18434,2.758 -0.27931,4.1367c-0.11172,1.07554 -0.57537,1.86329 -1.39653,2.36383c1.60881,-4.81216 1.41888,-9.53982 -0.55861,-14.18297z" opacity="0.012" id="svg_92" stroke="null"/>
  </g>
  <g id="svg_97" stroke="null">
   <path fill="#2b193f" d="m46.89298,234.44293c-1.17309,4.28798 -1.36302,8.62147 -0.55861,13.00105c-0.84351,-1.68777 -1.21219,-3.55933 -1.11723,-5.61409c-0.17317,-2.72195 0.38544,-5.18447 1.67584,-7.38696z" opacity="0.012" id="svg_98" stroke="null"/>
  </g>
  <g id="svg_129" stroke="null">
   <path fill="#2f1d43" d="m98.2854,272.26417c-1.30157,2.56062 -3.16734,4.53087 -5.58613,5.90957c1.67584,-2.16704 3.53602,-4.1367 5.58613,-5.90957z" opacity="0.027" id="svg_130" stroke="null"/>
  </g>
  <g id="svg_131" stroke="null">
   <path fill="#311f47" d="m203.3047,281.12853c-0.55861,1.77287 -1.67584,2.95478 -3.35168,3.54574c0.93288,-1.3787 2.05011,-2.56062 3.35168,-3.54574z" opacity="0.016" id="svg_132" stroke="null"/>
  </g>
  <g id="svg_133" stroke="null">
   <path fill="#2e1c45" d="m79.29255,286.44714c-2.80982,1.28297 -5.78723,2.1694 -8.93781,2.65931c-4.28456,0.39417 -8.56354,0.39417 -12.84811,0c-1.05019,-0.11701 -1.98308,-0.41249 -2.79307,-0.88644c8.31217,1.14409 16.50702,0.55314 24.57898,-1.77287l0.00001,0z" opacity="0.394" id="svg_134" stroke="null"/>
  </g>
 </g>

</svg>