<svg width="1543" height="320" xmlns="http://www.w3.org/2000/svg" version="1.1" clip-rule="evenodd">
 <g>
  <title>Layer 1</title>
  <g id="svg_1" stroke="null">
   <path fill="#000000" d="m1120.87689,30.516c2.03694,2.36835 4.20804,4.8234 6.50518,7.36514c5.42776,7.62678 8.13961,15.92729 8.13148,24.90119c-2.28901,-0.18834 -4.46012,0.04559 -6.50518,0.70144c-0.81315,0 -1.6263,0 -2.43944,0c-0.32119,-10.12952 -4.25276,-19.01434 -11.79065,-26.65479c-0.42284,-0.89651 -1.10182,-1.65639 -2.03287,-2.27969c-1.0449,-0.72932 -2.12638,-1.3723 -3.25259,-1.92897c-5.28546,-3.91566 -11.38407,-6.54607 -18.29583,-7.89122c-1.73607,-0.37717 -3.49654,-0.55253 -5.28546,-0.52608c-0.67898,-0.46762 -1.35389,-0.46762 -2.03287,0c-0.94732,0 -1.8987,0 -2.84602,0c0,-2.80577 0,-5.61154 0,-8.4173c15.74255,0.12984 29.02125,5.03993 39.84426,14.73028l-0.00001,0z" opacity="0.967" id="svg_2" stroke="null"/>
  </g>
  <g id="svg_3" stroke="null">
   <path fill="#131313" d="m1085.91152,24.20302c1.78893,-0.02644 3.54939,0.14892 5.28546,0.52608c6.91176,1.34516 13.01037,3.97556 18.29583,7.89122c-0.2724,0 -0.54074,0 -0.81315,0c-4.16738,-2.03197 -8.50146,-3.66868 -13.01037,-4.91009c-3.6429,-1.03687 -7.4403,-1.50449 -11.38407,-1.40288c0,-0.70144 0,-1.40288 0,-2.10433c0.54074,0 1.08555,0 1.6263,0z" opacity="0.749" id="svg_4" stroke="null"/>
  </g>
  <g id="svg_5" stroke="null">
   <path fill="#4f4f4f" d="m1085.91152,24.20302c-0.54074,0 -1.08555,0 -1.6263,0c0,0.70144 0,1.40288 0,2.10433c3.94377,-0.1016 7.74117,0.36601 11.38407,1.40288c-3.89091,-0.64662 -7.82248,-0.99735 -11.79065,-1.05216c0,-0.81834 0,-1.63671 0,-2.45505c0.67898,-0.46762 1.35389,-0.46762 2.03287,0l0.00001,0z" opacity="0.031" id="svg_6" stroke="null"/>
  </g>
  <g id="svg_7" stroke="null">
   <path fill="#000000" d="m1108.67967,42.44051c1.08555,1.28785 2.17111,2.57394 3.25259,3.85793c3.03304,4.1841 4.79351,8.74347 5.28546,13.67812c0,0.93537 0,1.87039 0,2.80577c-2.28901,-0.18834 -4.46012,0.04559 -6.50518,0.70144c-0.80095,0.08382 -1.54498,-0.03297 -2.23616,-0.35072c-0.34559,-5.97138 -2.71998,-11.23219 -7.11505,-15.78244c-3.96816,-3.99296 -8.98122,-6.44801 -15.04324,-7.36514c-0.81315,-0.46751 -1.6263,-0.46751 -2.43944,0c-0.95951,-0.06103 -1.90683,-0.17782 -2.84602,-0.35072c0,-2.68887 0,-5.37771 0,-8.06658c11.12793,0.11626 20.3409,3.74037 27.64703,10.87235l0.00001,-0.00001z" opacity="0.961" id="svg_8" stroke="null"/>
  </g>
  <g id="svg_9" stroke="null">
   <path fill="#3d3d3d" d="m1108.67967,32.62032c0.2724,0 0.54074,0 0.81315,0c1.12621,0.55666 2.2077,1.19964 3.25259,1.92897c0.93105,0.6233 1.61003,1.38317 2.03287,2.27969c-2.041,-1.41351 -4.07387,-2.81639 -6.09861,-4.20865l0,-0.00001z" opacity="0.463" id="svg_10" stroke="null"/>
  </g>
  <g id="svg_11" stroke="null">
   <path fill="#363636" d="m1120.87689,30.516c1.20346,0.86344 2.35813,1.79871 3.45588,2.80577c1.54498,1.38514 2.82976,2.90492 3.86245,4.55937c-0.36592,-0.35293 -0.63426,-0.35293 -0.81315,0c-2.29714,-2.54175 -4.46825,-4.99679 -6.50518,-7.36514z" opacity="0.58" id="svg_12" stroke="null"/>
  </g>
  <g id="svg_13" stroke="null">
   <path fill="#0f0f0f" d="m1128.19522,37.88114c4.14299,4.5741 6.98901,9.71813 8.53805,15.43172c0.16263,1.72274 0.5692,3.35956 1.21972,4.91009c0.08538,2.34071 0.22362,4.67897 0.40657,7.01442c-2.84602,0 -5.69204,0 -8.53805,0c0,-0.70144 0,-1.40288 0,-2.10433c1.97595,0.11188 3.87465,-0.00491 5.69204,-0.35072c0.00813,-8.9739 -2.70372,-17.27441 -8.13148,-24.90119c0.17889,-0.35293 0.44723,-0.35293 0.81315,0l0,0.00001z" opacity="0.749" id="svg_14" stroke="null"/>
  </g>
  <g id="svg_15" stroke="null">
   <path fill="#4f4f4f" d="m1086.3181,39.98546c-0.67898,0 -1.35389,0 -2.03287,0c0,0.70144 0,1.40288 0,2.10433c-0.39031,-0.61902 -0.52448,-1.32046 -0.40657,-2.10433c0.81315,-0.46751 1.6263,-0.46751 2.43944,0z" opacity="0.305" id="svg_16" stroke="null"/>
  </g>
  <g id="svg_17" stroke="null">
   <path fill="#151515" d="m1086.3181,39.98546c6.06202,0.91714 11.07508,3.37218 15.04324,7.36514c-2.59801,-1.47022 -5.30579,-2.75632 -8.13148,-3.85793c-2.50856,-1.12301 -5.21634,-1.59087 -8.13148,-1.40288c-0.2724,0 -0.54074,0 -0.81315,0c0,-0.70144 0,-1.40288 0,-2.10433c0.67898,0 1.35389,0 2.03287,0z" opacity="0.749" id="svg_18" stroke="null"/>
  </g>
  <g id="svg_19" stroke="null">
   <path fill="#4e4e4e" d="m1085.09838,42.08979c2.91514,-0.18799 5.62292,0.27988 8.13148,1.40288c-2.73624,-0.59202 -5.44403,-1.05988 -8.13148,-1.40288z" opacity="0.141" id="svg_20" stroke="null"/>
  </g>
  <g id="svg_21" stroke="null">
   <path fill="#3e3e3e" d="m1108.67967,42.44051c1.78893,1.1907 3.27699,2.59358 4.47231,4.20865c-0.39031,-0.15888 -0.72777,-0.39246 -1.01644,-0.70144c-0.16263,0.07996 -0.23175,0.19711 -0.20329,0.35072c-1.08149,-1.28399 -2.16704,-2.57008 -3.25259,-3.85793l0.00001,0z" opacity="0.71" id="svg_22" stroke="null"/>
  </g>
  <g id="svg_23" stroke="null">
   <path fill="#0b0b0b" d="m1113.15198,46.64916c2.25242,2.24707 3.87872,4.81926 4.87889,7.71586c0.73183,2.30599 1.34169,4.64425 1.82958,7.01442c0.20329,1.28083 0.2724,2.56658 0.20329,3.85793c-2.84602,0 -5.69204,0 -8.53805,0c0,-0.70144 0,-1.40288 0,-2.10433c2.03287,0 4.06574,0 6.09861,0c0.12604,-1.12687 -0.00813,-2.17903 -0.40657,-3.15649c-0.49195,-4.93464 -2.25242,-9.49402 -5.28546,-13.67812c-0.02846,-0.15362 0.04066,-0.27076 0.20329,-0.35072c0.28867,0.30899 0.62612,0.54257 1.01644,0.70144l-0.00002,0.00001z" opacity="0.749" id="svg_24" stroke="null"/>
  </g>
  <g stroke="null" id="svg_25">
   <path stroke="null" fill="#000000" d="m1096.88902,54.71574c5.15129,7.01863 4.74472,13.79912 -1.21972,20.34182c-3.41929,2.54097 -7.35086,4.06065 -11.79065,4.55937c-4.61868,0.08523 -9.22923,-0.03156 -13.82352,-0.35072c-1.22785,-0.35844 -2.041,-1.05988 -2.43944,-2.10433c-0.90666,-2.4077 -0.36592,-4.51203 1.6263,-6.31298c0.44723,-0.37106 0.98797,-0.66356 1.6263,-0.8768c4.47231,-0.11679 8.94463,-0.23393 13.41694,-0.35072c4.39507,-1.37237 5.88719,-4.00278 4.47231,-7.89122c0.06912,-0.34792 -0.06505,-0.5815 -0.40657,-0.70144c-0.77249,-1.07286 -1.85398,-1.83287 -3.25259,-2.27969c-6.50518,-0.17536 -13.01037,-0.23393 -19.51555,-0.17536c0.1667,3.18525 -0.03659,6.34174 -0.60986,9.46947c-1.79706,1.94194 -4.17145,2.76017 -7.11505,2.45505c-0.2724,0 -0.40657,0.11679 -0.40657,0.35072c-0.93105,0.08978 -1.81332,-0.02701 -2.64273,-0.35072c-0.20329,-7.2473 -0.2724,-14.49565 -0.20329,-21.7447c10.57092,-0.05857 21.14185,0 31.71277,0.17536c4.43166,0.79438 7.95259,2.72335 10.57092,5.7869l0,-0.00001z" opacity="0.982" id="svg_26"/>
  </g>
  <g id="svg_27" stroke="null">
   <path fill="#7449a5" d="m1163.56716,56.82007c1.55311,2.76052 1.62223,5.56629 0.20329,8.4173c-29.27333,36.00747 -58.54666,72.01459 -87.81999,108.02206c-9.30648,8.27702 -20.48727,11.02421 -33.54236,8.24194c-4.5211,-1.30433 -8.58684,-3.2333 -12.19722,-5.7869c-8.6275,-6.59706 -12.35578,-14.89757 -11.18079,-24.90119c0.5692,-2.90327 1.52059,-5.70904 2.84602,-8.4173c8.69662,-11.55766 17.84453,-22.83895 27.44375,-33.84457c4.06574,-2.57184 8.13148,-2.57184 12.19722,0c0.92292,0.61657 1.59784,1.37658 2.03287,2.27969c1.78079,3.24417 1.57751,6.40066 -0.60986,9.46947c-7.72491,9.46947 -15.44981,18.93893 -23.17472,28.4084c-2.89887,5.0567 -2.21989,9.73286 2.03287,14.02884c0.45943,0.57553 1.06929,0.92625 1.82958,1.05216c6.81418,3.3543 12.97784,2.65285 18.49912,-2.10433c28.43579,-35.40283 57.03421,-70.70886 85.78712,-105.91773c3.82993,-3.07688 8.09895,-3.60296 12.80708,-1.57824c1.30917,0.60149 2.25649,1.47829 2.84602,2.63041l0,-0.00001z" opacity="0.996" id="svg_28" stroke="null"/>
  </g>
  <g id="svg_29" stroke="null">
   <path fill="#3a3a3a" d="m1136.73328,53.31286c0.78062,1.52809 1.1872,3.16456 1.21972,4.91009c-0.65052,-1.55054 -1.05709,-3.18735 -1.21972,-4.91009z" opacity="0.733" id="svg_30" stroke="null"/>
  </g>
  <g id="svg_31" stroke="null">
   <path fill="#7449a5" d="m1202.1917,59.27512c1.66695,2.9415 1.59784,5.86405 -0.20329,8.76802c-25.80119,31.83249 -51.75687,63.57274 -77.85893,95.22075c-3.73235,1.99981 -7.45657,2.05803 -11.18079,0.17536c-0.16263,0.07996 -0.23175,0.19711 -0.20329,0.35072c-4.6634,-3.12808 -5.67984,-6.98601 -3.04931,-11.57379c24.95958,-30.53272 49.7606,-61.16223 74.40305,-91.8889c3.54939,-5.15174 8.4974,-6.49605 14.83995,-4.03329c1.44334,0.71793 2.52482,1.71152 3.25259,2.98113l0.00002,0z" opacity="0.993" id="svg_32" stroke="null"/>
  </g>
  <g id="svg_33" stroke="null">
   <path fill="#09050d" d="m1163.56716,56.82007c1.66289,0.61516 2.74437,1.66733 3.25259,3.15649c0.22768,1.23138 0.49602,2.4589 0.81315,3.68257c-0.21548,0.98798 -0.34965,1.98157 -0.40657,2.98113c-0.21955,0.73406 -0.56107,1.4355 -1.01644,2.10433c-27.88285,34.19249 -55.66405,68.446 -83.34768,102.76125c-1.09775,1.23629 -2.24835,2.40524 -3.45588,3.50721c-1.49213,1.05216 -2.84602,2.22112 -4.06574,3.50721c-2.74031,2.35299 -5.9929,3.9898 -9.75778,4.91009c-5.87499,1.38044 -11.83944,1.73116 -17.88926,1.05216c-7.13944,-1.03217 -12.96971,-3.95473 -17.48268,-8.76802c3.61038,2.5536 7.67612,4.48256 12.19722,5.7869c13.05509,2.78227 24.23588,0.03507 33.54236,-8.24194c29.27333,-36.00747 58.54666,-72.01459 87.81999,-108.02206c1.41894,-2.85101 1.34983,-5.65678 -0.20329,-8.4173l0.00001,-0.00002z" opacity="0.749" id="svg_34" stroke="null"/>
  </g>
  <g id="svg_35" stroke="null">
   <path fill="#030303" d="m1088.35097,61.02872c-6.62309,-0.34055 -13.26245,-0.45734 -19.92213,-0.35072c0.06912,2.92501 0,5.84757 -0.20329,8.76802c-0.32119,0.43665 -0.52448,0.90416 -0.60986,1.40288c0,0.23393 0,0.46751 0,0.70144c-0.44723,0.38579 -0.99204,0.61972 -1.6263,0.70144c-2.68745,0.32372 -5.3993,0.44051 -8.13148,0.35072c0,-0.70144 0,-1.40288 0,-2.10433c2.9436,0.30513 5.31799,-0.5131 7.11505,-2.45505c0.57327,-3.12773 0.77656,-6.28422 0.60986,-9.46947c6.50518,-0.05857 13.01037,0 19.51555,0.17536c1.39861,0.44682 2.4801,1.20683 3.25259,2.27969l0.00001,0.00002z" opacity="0.749" id="svg_36" stroke="null"/>
  </g>
  <g id="svg_37" stroke="null">
   <path fill="#09050d" d="m1202.1917,59.27512c1.65476,0.74283 2.74031,1.91178 3.25259,3.50721c0.54074,2.22112 0.54074,4.44258 0,6.6637c-0.80095,1.61507 -1.81739,3.13474 -3.04931,4.55937c-24.52861,30.162 -49.06129,60.32401 -73.5899,90.48601c-4.05761,3.51984 -8.59904,4.04592 -13.62023,1.57824c-0.89853,-0.71442 -1.71168,-1.47408 -2.43944,-2.27969c-0.02846,-0.15362 0.04066,-0.27076 0.20329,-0.35072c3.72422,1.88267 7.44844,1.82445 11.18079,-0.17536c26.10205,-31.64801 52.05774,-63.38826 77.85893,-95.22075c1.80112,-2.90397 1.87024,-5.82653 0.20329,-8.76802l-0.00001,0.00001z" opacity="0.749" id="svg_38" stroke="null"/>
  </g>
  <g id="svg_39" stroke="null">
   <path fill="#434343" d="m1088.35097,61.02872c0.34152,0.11995 0.47569,0.35353 0.40657,0.70144c-0.51635,-0.20693 -1.05709,-0.38229 -1.6263,-0.52608c-6.09861,-0.17536 -12.19722,-0.23393 -18.29583,-0.17536c0.06912,2.92501 0,5.84757 -0.20329,8.76802c-0.1545,0.50574 -0.49195,0.85646 -1.01644,1.05216c0.08538,-0.49873 0.28867,-0.96624 0.60986,-1.40288c0.20329,-2.92045 0.2724,-5.84301 0.20329,-8.76802c6.65968,-0.10662 13.29904,0.01017 19.92213,0.35072l0.00001,0z" opacity="0.536" id="svg_40" stroke="null"/>
  </g>
  <g id="svg_41" stroke="null">
   <path fill="#251834" d="m1166.81976,59.97656c1.42301,2.17026 1.56124,4.39173 0.40657,6.6637c0.05692,-0.99955 0.19109,-1.99315 0.40657,-2.98113c-0.31713,-1.22367 -0.58547,-2.45119 -0.81315,-3.68257l0.00001,0z" opacity="0.186" id="svg_42" stroke="null"/>
  </g>
  <g id="svg_43" stroke="null">
   <path fill="#4b4b4b" d="m1118.03087,54.36502c1.83771,3.54333 2.71998,7.28447 2.64273,11.22307c-3.01678,0.40228 -6.06608,0.4605 -9.14792,0.17536c-0.2968,-0.75545 -0.5692,-1.51547 -0.81315,-2.27969c2.04507,-0.65585 4.21617,-0.88978 6.50518,-0.70144c0,-0.93537 0,-1.87039 0,-2.80577c0.39844,0.97746 0.53261,2.02962 0.40657,3.15649c-2.03287,0 -4.06574,0 -6.09861,0c0,0.70144 0,1.40288 0,2.10433c2.84602,0 5.69204,0 8.53805,0c0.06912,-1.29135 0,-2.5771 -0.20329,-3.85793c-0.48789,-2.37017 -1.09775,-4.70843 -1.82958,-7.01442l0.00002,0z" opacity="0.58" id="svg_44" stroke="null"/>
  </g>
  <g id="svg_45" stroke="null">
   <path fill="#303030" d="m1102.58106,61.73016c1.34983,2.7735 1.48806,5.57927 0.40657,8.4173c0.04472,-2.81454 -0.08945,-5.6203 -0.40657,-8.4173z" opacity="0.735" id="svg_46" stroke="null"/>
  </g>
  <g id="svg_47" stroke="null">
   <path fill="#4b4b4b" d="m1137.953,58.22295c0.68304,2.48872 0.95138,5.06055 0.81315,7.71586c-3.11842,0 -6.23278,0 -9.3512,0c0.02033,-0.84278 -0.11384,-1.66101 -0.40657,-2.45505c2.04507,-0.65585 4.21617,-0.88978 6.50518,-0.70144c-1.81739,0.34581 -3.71609,0.4626 -5.69204,0.35072c0,0.70144 0,1.40288 0,2.10433c2.84602,0 5.69204,0 8.53805,0c-0.18296,-2.33545 -0.32119,-4.67371 -0.40657,-7.01442z" opacity="0.012" id="svg_48" stroke="null"/>
  </g>
  <g id="svg_49" stroke="null">
   <path fill="#2d1c40" d="m1205.44429,62.78233c1.6263,2.22112 1.6263,4.44258 0,6.6637c0.54074,-2.22112 0.54074,-4.44258 0,-6.6637z" opacity="0.4" id="svg_50" stroke="null"/>
  </g>
  <g id="svg_51" stroke="null">
   <path fill="#313131" d="m1057.85792,70.49819c0,0.70144 0,1.40288 0,2.10433c2.73218,0.08978 5.44403,-0.02701 8.13148,-0.35072c-0.62206,0.57168 -1.43521,0.86383 -2.43944,0.8768c-1.8987,0.23393 -3.79334,0.23393 -5.69204,0c-0.37405,-0.71582 -0.51228,-1.47583 -0.40657,-2.27969c0,-0.23393 0.13417,-0.35072 0.40657,-0.35072z" opacity="0.732" id="svg_52" stroke="null"/>
  </g>
  <g id="svg_53" stroke="null">
   <path fill="#9c8cac" d="m1069.24199,70.84891c-1.99221,1.80095 -2.53296,3.90528 -1.6263,6.31298c-0.61799,-0.68811 -0.88633,-1.50635 -0.81315,-2.45505c-0.02033,-1.1195 0.25208,-2.17166 0.81315,-3.15649c0.44723,-0.38579 0.99204,-0.61972 1.6263,-0.70144z" opacity="0.352" id="svg_54" stroke="null"/>
  </g>
  <g id="svg_55" stroke="null">
   <path fill="#7449a4" d="m1095.6693,75.05756c4.87076,4.42294 6.1596,9.56697 3.86245,15.43172c-2.79316,5.68203 -7.74117,9.01388 -14.83995,9.99555c-8.94463,0.17536 -17.88926,0.23393 -26.83389,0.17536c-0.13417,0 -0.2724,0 -0.40657,0c-0.94732,0 -1.8987,0 -2.84602,0c-0.13417,-7.25186 0,-14.50021 0.40657,-21.7447c2.43944,-0.42051 4.87889,-0.36229 7.31833,0.17536c1.1506,0.5843 2.09792,1.34396 2.84602,2.27969c0.37405,3.25925 0.50822,6.53288 0.40657,9.82019c1.04083,0.10592 1.98815,-0.01122 2.84602,-0.35072c0.13417,0 0.2724,0 0.40657,0c5.58226,0.14976 11.13606,-0.0256 16.66954,-0.52608c3.43962,-1.71047 4.52517,-4.22408 3.25259,-7.5405c0.06912,-0.34792 -0.06505,-0.5815 -0.40657,-0.70144c-1.02457,-1.4362 -2.51263,-2.25443 -4.47231,-2.45505c4.43979,-0.49873 8.37136,-2.0184 11.79065,-4.55937l0,-0.00001z" opacity="0.983" id="svg_56" stroke="null"/>
  </g>
  <g id="svg_57" stroke="null">
   <path fill="#070509" d="m1096.88902,54.71574c2.89481,1.71117 4.78944,4.04942 5.69204,7.01442c0.31713,2.797 0.4513,5.60277 0.40657,8.4173c-0.48789,2.71213 -1.84178,5.05003 -4.06574,7.01442c1.85398,1.56422 3.0737,3.43461 3.65917,5.61154c0.31713,2.797 0.4513,5.60277 0.40657,8.4173c-0.36592,2.50029 -1.58564,4.60462 -3.65917,6.31298c-0.81315,0.46751 -1.49213,1.05216 -2.03287,1.7536c-0.4391,0.73195 -1.11808,1.19947 -2.03287,1.40288c-1.21159,0.2897 -2.29714,0.75721 -3.25259,1.40288c-0.81721,0.49943 -1.7686,0.73301 -2.84602,0.70144c-10.43676,0 -20.86945,0 -31.3062,0c0,-0.70144 0,-1.40288 0,-2.10433c8.94463,0.05857 17.88926,0 26.83389,-0.17536c7.09878,-0.98167 12.04679,-4.31352 14.83995,-9.99555c2.29714,-5.86476 1.0083,-11.00878 -3.86245,-15.43172c5.96444,-6.5427 6.37102,-13.32319 1.21972,-20.34182l0,0.00002z" opacity="0.749" id="svg_58" stroke="null"/>
  </g>
  <g id="svg_59" stroke="null">
   <path fill="#0c0b0d" d="m1070.05514,79.26621c4.59429,0.31916 9.20484,0.43595 13.82352,0.35072c1.95969,0.20061 3.44775,1.01884 4.47231,2.45505c-4.60648,0 -9.21703,0 -13.82352,0c-2.15484,-0.16764 -3.64697,-1.10302 -4.47231,-2.80577z" opacity="0.75" id="svg_60" stroke="null"/>
  </g>
  <g id="svg_61" stroke="null">
   <path fill="#493e53" d="m1074.52745,82.07198c4.60648,0 9.21703,0 13.82352,0c0.34152,0.11995 0.47569,0.35353 0.40657,0.70144c-4.79757,-0.2199 -9.53823,-0.45348 -14.23009,-0.70144z" opacity="0.024" id="svg_62" stroke="null"/>
  </g>
  <g id="svg_63" stroke="null">
   <path fill="#07040b" d="m1065.17625,81.37054c0.94732,0.58465 1.76047,1.28609 2.43944,2.10433c0.7237,2.40279 0.99611,4.85784 0.81315,7.36514c-0.85787,0.3395 -1.80519,0.45664 -2.84602,0.35072c0.10164,-3.28731 -0.03253,-6.56094 -0.40657,-9.82019z" opacity="0.749" id="svg_64" stroke="null"/>
  </g>
  <g id="svg_65" stroke="null">
   <path fill="#311e46" d="m1067.61569,83.47486c0.59766,0.29706 0.93512,0.76457 1.01644,1.40288c0.20329,1.98403 0.2724,3.97156 0.20329,5.96226c-0.13417,0 -0.2724,0 -0.40657,0c0.18296,-2.5073 -0.08945,-4.96235 -0.81315,-7.36514l-0.00001,0z" opacity="0.171" id="svg_66" stroke="null"/>
  </g>
  <g id="svg_67" stroke="null">
   <path fill="#20152c" d="m1102.58106,82.77342c1.34983,2.7735 1.48806,5.57927 0.40657,8.4173c0.04472,-2.81454 -0.08945,-5.6203 -0.40657,-8.4173z" opacity="0.734" id="svg_68" stroke="null"/>
  </g>
  <g id="svg_69" stroke="null">
   <path fill="#7449a5" d="m1209.9166,98.55587c2.15891,3.17087 2.08979,6.32736 -0.20329,9.46947c-19.37325,23.13601 -38.34806,46.51753 -56.92036,70.1442c-3.87465,3.22418 -8.14368,3.92562 -12.80708,2.10433c-5.06591,-3.3343 -6.08235,-7.42582 -3.04931,-12.27523c18.97481,-23.38152 37.94555,-46.76268 56.92036,-70.1442c4.19178,-3.57841 8.86738,-4.10449 14.0268,-1.57824c0.93105,0.62323 1.61003,1.38324 2.03287,2.27969l0.00001,-0.00002z" opacity="0.993" id="svg_70" stroke="null"/>
  </g>
  <g id="svg_71" stroke="null">
   <path fill="#321f48" d="m1099.32847,97.5037c-0.2724,0.93537 -0.94732,1.51967 -2.03287,1.7536c0.54074,-0.70144 1.21972,-1.28609 2.03287,-1.7536z" opacity="0.012" id="svg_72" stroke="null"/>
  </g>
  <g id="svg_73" stroke="null">
   <path fill="#09050d" d="m1209.9166,98.55587c1.35389,0.46751 2.30527,1.28609 2.84602,2.45505c1.6263,3.0397 1.6263,6.07905 0,9.11875c-18.97481,23.38432 -37.94962,46.76584 -56.92036,70.1442c-0.94732,0.58465 -1.76047,1.28609 -2.43944,2.10433c-3.56972,1.80376 -7.22889,1.86233 -10.9775,0.17536c-0.89853,-0.71442 -1.71168,-1.47408 -2.43944,-2.27969c4.6634,1.82129 8.93243,1.11985 12.80708,-2.10433c18.5723,-23.62667 37.54711,-47.00818 56.92036,-70.1442c2.29308,-3.14211 2.3622,-6.2986 0.20329,-9.46947l-0.00001,0z" opacity="0.749" id="svg_74" stroke="null"/>
  </g>
  <g id="svg_75" stroke="null">
   <path fill="#2b1a41" d="m1095.26273,100.66019c-0.84567,0.83226 -1.93123,1.29977 -3.25259,1.40288c0.95545,-0.64568 2.041,-1.11319 3.25259,-1.40288z" opacity="0.204" id="svg_76" stroke="null"/>
  </g>
  <g id="svg_77" stroke="null">
   <path fill="#21152f" d="m1057.45134,100.66019c0.13417,0 0.2724,0 0.40657,0c0,0.70144 0,1.40288 0,2.10433c10.43676,0 20.86945,0 31.3062,0c-10.50181,0.35002 -21.07273,0.46681 -31.71277,0.35072c0,-0.81823 0,-1.63681 0,-2.45505z" opacity="0.635" id="svg_78" stroke="null"/>
  </g>
  <g id="svg_79" stroke="null">
   <path fill="#2b1a3e" d="m1212.76262,101.01091c2.19143,2.47048 2.52889,5.15946 1.01644,8.06658c-0.1545,0.50574 -0.49195,0.85646 -1.01644,1.05216c1.6263,-3.0397 1.6263,-6.07905 0,-9.11875l0,0.00001z" opacity="0.602" id="svg_80" stroke="null"/>
  </g>
  <g id="svg_81" stroke="null">
   <path fill="#09050d" d="m1063.54995,110.8311c1.65069,0.6078 2.73624,1.65996 3.25259,3.15649c0.17483,1.15212 0.5814,2.20428 1.21972,3.15649c0.15043,1.77044 -0.32119,3.40725 -1.42301,4.91009c-8.30224,10.13689 -16.50284,20.3078 -24.59773,30.51272c-0.93919,1.30714 -1.34576,2.76859 -1.21972,4.38401c-0.06912,1.21946 0.19922,2.33019 0.81315,3.33185c0.66272,1.14616 1.34169,2.31511 2.03287,3.50721c-0.76029,-0.12591 -1.37015,-0.47663 -1.82958,-1.05216c-4.25276,-4.29598 -4.93174,-8.97214 -2.03287,-14.02884c7.72491,-9.46947 15.44981,-18.93893 23.17472,-28.4084c2.18737,-3.06881 2.39066,-6.2253 0.60986,-9.46947l0,0.00001z" opacity="0.749" id="svg_82" stroke="null"/>
  </g>
  <g id="svg_83" stroke="null">
   <path fill="#2e1d43" d="m1066.80254,113.98759c0.80095,0.90626 1.20752,1.95843 1.21972,3.15649c-0.63832,-0.95221 -1.0449,-2.00437 -1.21972,-3.15649z" opacity="0.031" id="svg_84" stroke="null"/>
  </g>
  <g opacity="0.992" fill="#b2b2b2" id="svg_85" stroke="null">
   <path fill="#000000" d="m468.83611,136.43809c1.80112,2.05522 3.6986,4.04241 5.69204,5.96226c11.89636,16.41199 13.86133,33.71411 5.89532,51.9067c-2.60533,5.08475 -5.92582,9.76092 -9.96106,14.02884c-9.68337,9.43685 -21.88059,14.58087 -36.59166,15.43172c-12.46881,0.05857 -24.93722,0 -37.40481,-0.17536c-1.41406,-0.43489 -2.76918,-0.96098 -4.06574,-1.57824c-0.5688,-0.4875 -1.24656,-0.83822 -2.03287,-1.05216c-1.8121,-1.0939 -3.16762,-2.49678 -4.06574,-4.20865c-2.74641,-4.99742 -3.15298,-10.14145 -1.21972,-15.43172c1.64053,-3.987 4.75773,-6.67597 9.3512,-8.06658c1.08393,-0.15186 2.16785,-0.32722 3.25259,-0.52608c11.93335,0.05612 23.724,-0.23604 35.37194,-0.8768c8.14083,-0.88066 13.76497,-4.62145 16.87282,-11.22307c2.83016,-7.33007 1.67793,-14.11056 -3.45588,-20.34182c-0.40657,-0.58465 -0.94854,-1.05216 -1.6263,-1.40288c-2.76958,-2.4817 -6.15756,-4.05995 -10.16435,-4.73473c-18.29542,-0.17536 -36.59126,-0.23393 -54.88749,-0.17536c0.0679,8.65194 0,17.30317 -0.20329,25.95335c-0.82006,6.78435 -4.95329,11.2855 -12.40051,13.50276c-5.94493,0.48891 -11.90815,0.66427 -17.88926,0.52608c-0.27118,0 -0.40657,0.11679 -0.40657,0.35072c-1.12946,0.16764 -1.94261,-0.18308 -2.43944,-1.05216c-0.40657,-23.73083 -0.54196,-47.46307 -0.40657,-71.19636c30.63576,-0.16238 61.2642,0.01298 91.88573,0.52608c12.31309,1.39341 22.61324,6.01136 30.89963,13.85348l-0.00001,-0.00002z" opacity="0.992" id="svg_86" stroke="#007fff"/>
  </g>
  <g id="svg_87" stroke="null">
   <path fill="#7449a5" d="m1218.04809,137.83661c1.78079,3.45741 1.57751,6.84783 -0.60986,10.17091c-12.62819,15.21778 -25.09375,30.53237 -37.40481,45.94445c-3.70796,3.75342 -8.0461,4.45486 -13.01037,2.10433c-0.16263,0.07996 -0.23175,0.19711 -0.20329,0.35072c-4.74065,-3.22032 -5.75709,-7.19504 -3.04931,-11.92451c12.6038,-15.54851 25.20759,-31.09738 37.81139,-46.64589c5.52941,-5.1086 11.01816,-5.1086 16.46625,0l0,-0.00001z" opacity="0.992" id="svg_88" stroke="null"/>
  </g>
  <g id="svg_89" stroke="null">
   <path fill="#0a050d" d="m1218.04809,137.83661c1.24818,0.72564 2.19957,1.66101 2.84602,2.80577c1.43927,2.75561 1.57751,5.56138 0.40657,8.4173c-12.66478,15.7621 -25.33363,31.54455 -38.01467,47.34733c-5.53754,5.13806 -11.02629,5.13806 -16.46625,0c-0.02846,-0.15362 0.04066,-0.27076 0.20329,-0.35072c4.96427,2.35053 9.30241,1.64909 13.01037,-2.10433c12.31106,-15.41208 24.77662,-30.72666 37.40481,-45.94445c2.18737,-3.32308 2.39066,-6.7135 0.60986,-10.17091l0,0.00001z" opacity="0.749" id="svg_90" stroke="null"/>
  </g>
  <g id="svg_91" stroke="null">
   <path fill="#2f1d44" d="m1220.8941,140.64238c1.34576,1.25944 1.8865,2.77946 1.6263,4.55937c-0.06912,0.81823 -0.13417,1.63681 -0.20329,2.45505c-0.08131,0.63831 -0.41877,1.10582 -1.01644,1.40288c1.17093,-2.85592 1.0327,-5.66169 -0.40657,-8.4173z" opacity="0.012" id="svg_92" stroke="null"/>
  </g>
  <g id="svg_93" stroke="null">
   <path fill="#4b4b4b" d="m468.49697,136.55248c2.61874,1.78938 4.787,3.8937 6.50518,6.31298c-0.27118,-0.11679 -0.54196,-0.23393 -0.81315,-0.35072c-1.99343,-1.91985 -3.89091,-3.90703 -5.69204,-5.96226l0.00001,0z" opacity="0.075" id="svg_94" stroke="null"/>
  </g>
  <g id="svg_95" stroke="null">
   <path fill="#0f0e0f" d="m474.189,142.51473c0.27118,0.11679 0.54196,0.23393 0.81315,0.35072c2.36789,1.97631 4.12957,4.31457 5.28546,7.01442c0.7424,1.74799 1.69094,3.38481 2.84602,4.91009c0.61799,0.83822 1.02457,1.7736 1.21972,2.80577c0.2781,1.48145 0.68467,2.94255 1.21972,4.38401c0.13661,0.36124 0.40779,0.5366 0.81315,0.52608c0,0.11679 0,0.23393 0,0.35072c-0.24272,0.08242 -0.37811,0.25778 -0.40657,0.52608c0.38909,1.51161 0.79567,2.97306 1.21972,4.38401c1.07701,5.29554 1.07701,10.55635 0,15.78244c-0.35331,0.87119 -0.6245,1.80656 -0.81315,2.80577c0.01748,0.32126 0.15287,0.55519 0.40657,0.70144c0,0.23393 0,0.46751 0,0.70144c-0.40535,-0.01052 -0.67654,0.16484 -0.81315,0.52608c-0.53505,1.44146 -0.94163,2.90257 -1.21972,4.38401c-2.26096,6.76646 -6.05551,12.78729 -11.38407,18.06213c1.20427,0.97536 2.15322,2.08609 2.84602,3.33185c-0.36429,-0.35283 -0.63507,-0.35283 -0.81315,0c-1.56694,-1.99911 -3.32903,-3.8695 -5.28546,-5.61154c4.03525,-4.26792 7.35574,-8.94409 9.96106,-14.02884c7.96601,-18.1926 6.00103,-35.49472 -5.89532,-51.9067l0,0.00002z" opacity="0.749" id="svg_96" stroke="null"/>
  </g>
  <g id="svg_97" stroke="null">
   <path fill="#2b193f" d="m1042.00153,152.5669c-0.85381,2.54483 -0.99204,5.11667 -0.40657,7.71586c-0.61393,-1.00166 -0.88227,-2.11239 -0.81315,-3.33185c-0.12604,-1.61542 0.28054,-3.07688 1.21972,-4.38401z" opacity="0.012" id="svg_98" stroke="null"/>
  </g>
  <g id="svg_113" stroke="null">
   <path fill="#494949" d="m480.28761,149.87987c1.37178,1.43129 2.32032,3.06776 2.84602,4.91009c-1.15508,-1.52529 -2.10361,-3.1621 -2.84602,-4.91009z" opacity="0.133" id="svg_114" stroke="null"/>
  </g>
  <g id="svg_115" stroke="null">
   <path fill="#0d0d0d" d="m444.5091,158.99862c-0.27118,0 -0.54196,0 -0.81315,0c-1.29534,-0.38474 -2.51507,-0.85225 -3.65917,-1.40288c-1.68484,-0.86277 -3.44653,-1.0967 -5.28546,-0.70144c-17.48268,0 -34.96537,0 -52.44805,0c0.13458,9.29586 -0.00081,18.53175 -0.40657,27.70696c-0.68386,1.44287 -1.49701,3.07968 -2.43944,4.91009c-1.67468,2.84715 -4.24951,4.83469 -7.72491,5.96226c-1.67265,0.35423 -3.29894,0.70495 -4.87889,1.05216c-5.69204,0.46751 -11.38407,0.46751 -17.07611,0c-0.38584,-0.78456 -0.65702,-1.60315 -0.81315,-2.45505c5.98111,0.13818 11.94433,-0.03718 17.88926,-0.52608c7.44722,-2.21726 11.58045,-6.71841 12.40051,-13.50276c0.20329,-8.65018 0.27118,-17.30142 0.20329,-25.95335c18.29624,-0.05857 36.59207,0 54.88749,0.17536c4.00679,0.67479 7.39477,2.25303 10.16435,4.73473z" opacity="0.749" id="svg_116" stroke="null"/>
  </g>
  <g id="svg_117" stroke="null">
   <path fill="#4e4e4e" d="m434.75132,156.89429c1.83893,-0.39526 3.60062,-0.16133 5.28546,0.70144c-1.76169,-0.23393 -3.52378,-0.46751 -5.28546,-0.70144z" opacity="0.167" id="svg_118" stroke="null"/>
  </g>
  <g id="svg_119" stroke="null">
   <path fill="#3b3b3b" d="m484.35335,157.59573c0.83022,1.56281 1.50798,3.19963 2.03287,4.91009c-0.40535,0.01052 -0.67654,-0.16484 -0.81315,-0.52608c-0.53505,-1.44146 -0.94163,-2.90257 -1.21972,-4.38401z" opacity="0.231" id="svg_120" stroke="null"/>
  </g>
  <g id="svg_121" stroke="null">
   <path fill="#4a4a4a" d="m443.69595,158.99862c0.27118,0 0.54196,0 0.81315,0c0.67776,0.35072 1.21972,0.81823 1.6263,1.40288c-0.92577,-0.33283 -1.73892,-0.80035 -2.43944,-1.40288l-0.00001,0z" opacity="0.651" id="svg_122" stroke="null"/>
  </g>
  <g id="svg_127" stroke="null">
   <path fill="#494949" d="m486.38622,162.85655c0.53302,1.59964 0.8042,3.23645 0.81315,4.91009c-0.42406,-1.41095 -0.83063,-2.8724 -1.21972,-4.38401c0.02846,-0.2683 0.16385,-0.44366 0.40657,-0.52608z" opacity="0.159" id="svg_128" stroke="null"/>
  </g>
  <g id="svg_129" stroke="null">
   <path fill="#2f1d43" d="m1079.40634,175.01304c-0.94732,1.51967 -2.30527,2.68898 -4.06574,3.50721c1.21972,-1.28609 2.57361,-2.45505 4.06574,-3.50721z" opacity="0.027" id="svg_130" stroke="null"/>
  </g>
  <g id="svg_131" stroke="null">
   <path fill="#311f47" d="m1155.84226,180.27385c-0.40657,1.05216 -1.21972,1.7536 -2.43944,2.10433c0.67898,-0.81823 1.49213,-1.51967 2.43944,-2.10433z" opacity="0.016" id="svg_132" stroke="null"/>
  </g>
  <g id="svg_133" stroke="null">
   <path fill="#2e1c45" d="m1065.58282,183.43034c-2.04507,0.76142 -4.21211,1.2875 -6.50518,1.57824c-3.11842,0.23393 -6.23278,0.23393 -9.3512,0c-0.76436,-0.06944 -1.44334,-0.2448 -2.03287,-0.52608c6.04982,0.679 12.01426,0.32827 17.88926,-1.05216l-0.00001,0z" opacity="0.394" id="svg_134" stroke="null"/>
  </g>
  <g id="svg_145" stroke="null">
   <path fill="#4e4e4e" d="m487.19937,183.54909c0.06424,1.19315 -0.07156,2.36246 -0.40657,3.50721c-0.2537,-0.14625 -0.38909,-0.38018 -0.40657,-0.70144c0.18865,-0.9992 0.45984,-1.93458 0.81315,-2.80577l-0.00001,0z" opacity="0.004" id="svg_146" stroke="null"/>
  </g>
  <g id="svg_147" stroke="null">
   <path fill="#4b4b4b" d="m381.8967,184.60125c-0.15856,1.90687 -0.97171,3.54368 -2.43944,4.91009c0.94244,-1.83041 1.75559,-3.46723 2.43944,-4.91009z" opacity="0.092" id="svg_148" stroke="null"/>
  </g>
  <g id="svg_149" stroke="null">
   <path fill="#4a4a4a" d="m486.7928,187.75774c-0.52489,1.71047 -1.20265,3.34728 -2.03287,4.91009c0.2781,-1.48145 0.68467,-2.94255 1.21972,-4.38401c0.13661,-0.36124 0.40779,-0.5366 0.81315,-0.52608z" opacity="0.118" id="svg_150" stroke="null"/>
  </g>
  <g id="svg_151" stroke="null">
   <path fill="#a398af" d="m432.71845,191.96639c-11.64794,0.64077 -23.43859,0.93292 -35.37194,0.8768c-1.08474,0.19886 -2.16867,0.37422 -3.25259,0.52608c1.18801,-0.71231 2.54312,-1.12161 4.06574,-1.22752c11.51865,-0.17536 23.03852,-0.23393 34.55879,-0.17536z" opacity="0.853" id="svg_152" stroke="null"/>
  </g>
  <g id="svg_153" stroke="null">
   <path fill="#4e4e4e" d="m348.9642,194.07072c0.15612,0.8519 0.42731,1.67048 0.81315,2.45505c-0.83144,-0.49908 -1.23802,-1.20052 -1.21972,-2.10433c0,-0.23393 0.13539,-0.35072 0.40657,-0.35072z" opacity="0.318" id="svg_154" stroke="null"/>
  </g>
  <g id="svg_155" stroke="null">
   <path fill="#494949" d="m371.73235,195.4736c-1.43033,0.86488 -3.05662,1.2156 -4.87889,1.05216c1.57995,-0.34721 3.20624,-0.69793 4.87889,-1.05216z" opacity="0.302" id="svg_156" stroke="null"/>
  </g>
  <g id="svg_169" stroke="null">
   <path fill="#9c8dad" d="m384.74272,201.43586c-1.93326,5.29028 -1.52669,10.4343 1.21972,15.43172c-1.38438,-1.52739 -2.26543,-3.28099 -2.64273,-5.26081c-0.27118,-2.33826 -0.27118,-4.67616 0,-7.01442c0.20532,-1.18018 0.67979,-2.23234 1.42301,-3.15649z" opacity="0.112" id="svg_170" stroke="null"/>
  </g>
  <g id="svg_179" stroke="null">
   <path fill="#7449a5" d="m470.12326,208.45028c1.95643,1.74203 3.71853,3.61243 5.28546,5.61154c10.1115,14.70222 12.21186,30.25074 6.3019,46.64589c-5.88109,14.19052 -16.79069,24.30286 -32.72921,30.33736c-3.96125,1.19315 -8.02699,2.01138 -12.19722,2.45505c-29.34163,0.05857 -58.61497,0.23393 -87.81999,0.52608c-0.13539,0 -0.27118,0 -0.40657,0c-0.94854,0 -1.89748,0 -2.84602,0c-0.0679,-23.61545 0,-47.23054 0.20329,-70.84564c0.28135,-0.18413 0.48464,-0.41806 0.60986,-0.70144c6.36532,-0.40894 12.73512,-0.46751 19.10898,-0.17536c4.37677,0.71337 7.76475,2.64233 10.16435,5.7869c1.58442,2.27092 2.73624,4.72597 3.45588,7.36514c0.20329,8.88411 0.27118,17.76893 0.20329,26.65479c0.94854,0 1.89748,0 2.84602,0c16.94113,0.05857 33.88185,0 50.82175,-0.17536c9.81592,-1.66172 15.71124,-6.74717 17.68597,-15.25636c1.12743,-6.1071 -0.43097,-11.60185 -4.6756,-16.48389c-0.54196,-0.70144 -1.21972,-1.28609 -2.03287,-1.7536c-2.97978,-2.45435 -6.50315,-3.97402 -10.57092,-4.55937c14.71107,-0.85085 26.90829,-5.99487 36.59166,-15.43172l-0.00001,-0.00001z" opacity="0.994" id="svg_180" stroke="null"/>
  </g>
  <g id="svg_195" stroke="null">
   <path fill="#08040b" d="m476.22187,214.06181c1.76087,1.63155 3.11639,3.5023 4.06574,5.61154c0.60661,1.51441 1.41976,2.9173 2.43944,4.20865c0.77249,1.05848 1.31445,2.22743 1.6263,3.50721c1.02375,3.41357 1.97229,6.80399 2.84602,10.17091c1.08433,5.3776 1.08433,10.75556 0,16.13316c-0.93756,3.23505 -1.8861,6.50833 -2.84602,9.82019c-4.53452,12.44323 -13.47915,21.67876 -26.83389,27.70696c-1.4844,0.40649 -2.83992,0.99114 -4.06574,1.7536c-0.93187,0.61972 -2.01579,0.97044 -3.25259,1.05216c-3.73682,0.86418 -7.53138,1.50705 -11.38407,1.92897c-29.95068,0.17536 -59.90177,0.23393 -89.85286,0.17536c0,-0.70144 0,-1.40288 0,-2.10433c29.20503,-0.29215 58.47836,-0.46751 87.81999,-0.52608c4.17023,-0.44366 8.23597,-1.26189 12.19722,-2.45505c15.93852,-6.03451 26.84812,-16.14684 32.72921,-30.33736c5.90996,-16.39515 3.8096,-31.94367 -6.3019,-46.64589c0.17808,-0.35283 0.44886,-0.35283 0.81315,0z" opacity="0.749" id="svg_196" stroke="null"/>
  </g>
  <g id="svg_245" stroke="null">
   <path fill="#47424e" d="m390.02818,221.07623c0.78631,0.21394 1.46407,0.56466 2.03287,1.05216c-0.27118,0 -0.40657,0.11679 -0.40657,0.35072c-0.67776,-0.35072 -1.21972,-0.81823 -1.6263,-1.40288z" opacity="0.827" id="svg_246" stroke="null"/>
  </g>
  <g id="svg_249" stroke="null">
   <path fill="#2b1b3e" d="m480.28761,219.67335c1.23599,1.19736 2.04913,2.60025 2.43944,4.20865c-1.01969,-1.29135 -1.83284,-2.69424 -2.43944,-4.20865z" opacity="0.016" id="svg_250" stroke="null"/>
  </g>
  <g id="svg_255" stroke="null">
   <path fill="#0f0e11" d="m392.06105,222.12839c1.29656,0.61727 2.65168,1.14335 4.06574,1.57824c12.46759,0.17536 24.936,0.23393 37.40481,0.17536c4.06777,0.58535 7.59114,2.10503 10.57092,4.55937c0,0.23393 -0.13539,0.35072 -0.40657,0.35072c-0.67207,-0.05612 -1.21403,-0.2897 -1.6263,-0.70144c-1.52669,-1.0227 -3.28837,-1.49056 -5.28546,-1.40288c-0.13539,0 -0.27118,0 -0.40657,0c-11.85733,-0.2918 -23.78336,-0.46716 -35.77852,-0.52608c-1.064,-0.28829 -2.14834,-0.46365 -3.25259,-0.52608c-2.32479,-0.48715 -4.22227,-1.53931 -5.69204,-3.15649c0,-0.23393 0.13539,-0.35072 0.40657,-0.35072l0.00001,0z" opacity="0.749" id="svg_256" stroke="null"/>
  </g>
  <g id="svg_265" stroke="null">
   <path fill="#38343c" d="m397.34651,225.6356c1.10426,0.06243 2.18859,0.23779 3.25259,0.52608c11.99515,0.05892 23.92119,0.23428 35.77852,0.52608c-12.06265,0.05857 -24.12407,0 -36.18509,-0.17536c-1.05872,-0.13678 -2.00766,-0.42928 -2.84602,-0.8768z" opacity="0.522" id="svg_266" stroke="null"/>
  </g>
  <g id="svg_269" stroke="null">
   <path fill="#2d1c42" d="m436.78419,226.68777c1.99709,-0.08768 3.75878,0.38018 5.28546,1.40288c-1.79787,-0.47873 -3.55956,-0.94625 -5.28546,-1.40288z" opacity="0.235" id="svg_270" stroke="null"/>
  </g>
  <g id="svg_273" stroke="null">
   <path fill="#2e1c40" d="m444.10252,228.44137c0.81315,0.46751 1.49091,1.05216 2.03287,1.7536c-0.92577,-0.33283 -1.73892,-0.80035 -2.43944,-1.40288c0.27118,0 0.40657,-0.11679 0.40657,-0.35072z" opacity="0.733" id="svg_274" stroke="null"/>
  </g>
  <g id="svg_279" stroke="null">
   <path fill="#060309" d="m375.79809,228.09065c3.31764,2.20603 5.41841,5.12859 6.3019,8.76802c0.20329,8.4166 0.27118,16.83391 0.20329,25.25191c-0.94854,0 -1.89748,0 -2.84602,0c0.0679,-8.88587 0,-17.77068 -0.20329,-26.65479c-0.71964,-2.63918 -1.87146,-5.09422 -3.45588,-7.36514z" opacity="0.749" id="svg_280" stroke="null"/>
  </g>
  <g id="svg_283" stroke="null">
   <path fill="#301e45" d="m484.35335,227.38921c1.64134,3.2098 2.59028,6.60022 2.84602,10.17091c-0.87373,-3.36692 -1.82226,-6.75734 -2.84602,-10.17091z" opacity="0.059" id="svg_284" stroke="null"/>
  </g>
  <g id="svg_321" stroke="null">
   <path fill="#2e1d43" d="m487.19937,253.69328c-0.19394,3.47529 -1.14288,6.74857 -2.84602,9.82019c0.95992,-3.31186 1.90846,-6.58514 2.84602,-9.82019z" opacity="0.11" id="svg_322" stroke="null"/>
  </g>
  <g id="svg_361" stroke="null">
   <path fill="#311f46" d="m457.51947,291.22043c-1.11686,0.9494 -2.47197,1.5337 -4.06574,1.7536c1.22582,-0.76247 2.58134,-1.34712 4.06574,-1.7536z" opacity="0.278" id="svg_362" stroke="null"/>
  </g>
  <g id="svg_391" stroke="null">
   <path fill="#311e45" d="m348.55763,294.02619c0.13539,0 0.27118,0 0.40657,0c0,0.70144 0,1.40288 0,2.10433c29.95109,0.05857 59.90218,0 89.85286,-0.17536c3.8527,-0.42192 7.64725,-1.06479 11.38407,-1.92897c-3.22698,1.13458 -6.61496,1.89459 -10.16435,2.27969c-30.49265,0.17536 -60.9857,0.23393 -91.47916,0.17536c0,-0.81823 0,-1.63681 0,-2.45505l0.00001,0z" opacity="0.357" id="svg_392" stroke="null"/>
  </g>
  <text transform="matrix(6.02988 0 0 6.65376 -1969.17 -135.636)" stroke="#007fff" font-weight="bold" xml:space="preserve" text-anchor="start" font-family="'Oxanium'" font-size="24" stroke-width="0" id="svg_406" y="62.4125" x="408.04708" fill="#000000">Touchless</text>
 </g>

</svg>